<svg xmlns="http://www.w3.org/2000/svg" aria-hidden="true" viewBox="0 0 410 404" width="80" height="80">
  <defs>
    <linearGradient id="a" x1="6" y1="33" x2="235" y2="344" gradientUnits="userSpaceOnUse">
      <stop offset="0" stop-color="#41D1FF"/><stop offset="1" stop-color="#BD34FE"/>
    </linearGradient>
    <linearGradient id="b" x1="194" y1="8" x2="236" y2="292" gradientUnits="userSpaceOnUse">
      <stop offset="0" stop-color="#FFEA83"/><stop offset=".08" stop-color="#FFDD35"/><stop offset="1" stop-color="#FFA800"/>
    </linearGradient>
  </defs>
  <path fill="url(#a)" d="M399.6 59.5 215.1 388.9c-3.8 6.8-13.6 6.8-17.4.1L9.3 59.5c-4.2-7.4 2.2-16.3 10.6-14.8l185.1 33.1c1.2.2 2.4.2 3.5 0l181.2-33C397.3 43.3 403.8 52.1 399.6 59.5Z"/>
  <path fill="url(#b)" d="M292.7 1.9 156 28.7c-2.2.5-3.9 2.4-4.1 4.7l-8.4 142c-.3 3.4 2.8 6.1 6.2 5.3l38.1-8.8c3.7-.9 7 2.4 6.2 6.1l-11.3 55.5c-.9 3.9 2.7 7.2 6.5 6l23.5-7.1c3.8-1.2 7.4 2.2 6.5 6.1l-18 87.1c-1.3 6.2 7 9.6 10.4 4.2L221 261l113-225.6c2-3.9-1.4-8.4-5.7-7.6l-39.2 7.6c-3.9.8-7.3-2.9-6.1-6.7l25.4-24.6c1.2-3.8-2.2-7.6-6.2-6.8Z"/>
</svg>
